<svg width="36" height="3" viewBox="0 0 36 3" fill="none" xmlns="http://www.w3.org/2000/svg">
<path d="M34.4922 0.5L34.5918 0.505859C34.8211 0.531604 35.0356 0.635237 35.2002 0.799805C35.3648 0.964374 35.4684 1.17886 35.4941 1.4082L35.5 1.50781C35.498 1.77021 35.3927 2.02134 35.207 2.20703C35.0195 2.39457 34.7652 2.5 34.5 2.5H1.5C1.23478 2.5 0.980504 2.39457 0.792969 2.20703C0.607275 2.02134 0.502047 1.77021 0.5 1.50781C0.504158 1.2418 0.611686 0.987924 0.799805 0.799805C0.964527 0.635083 1.17961 0.531705 1.40918 0.505859L1.50781 0.5H34.4922Z" stroke="#010101"/>
</svg>
