<svg width="339" height="324" viewBox="0 0 339 324" fill="none" xmlns="http://www.w3.org/2000/svg">
<g filter="url(#filter0_d_4647_1660)">
<rect x="7" y="3" width="325" height="120" rx="16" fill="white" shape-rendering="crispEdges"/>
<rect x="52.5" y="18.5" width="89" height="89" rx="44.5" fill="#003BDD" fill-opacity="0.1"/>
<g clip-path="url(#clip0_4647_1660)">
<path fill-rule="evenodd" clip-rule="evenodd" d="M97.5 47.5C88.7 47.5 81.5 54.7 81.5 63.5C81.5 72.3 88.7 79.5 97.5 79.5C106.3 79.5 113.5 72.3 113.5 63.5C113.5 54.7 106.3 47.5 97.5 47.5ZM97.5 76.3C90.46 76.3 84.7 70.54 84.7 63.5C84.7 56.46 90.46 50.7 97.5 50.7C104.54 50.7 110.3 56.46 110.3 63.5C110.3 70.54 104.54 76.3 97.5 76.3Z" fill="#003BDD"/>
<path fill-rule="evenodd" clip-rule="evenodd" d="M98.2984 55.5H95.8984V65.1L104.218 70.22L105.498 68.14L98.2984 63.82V55.5Z" fill="#003BDD"/>
</g>
<path d="M163.572 28.636V29.524H161.292V37H160.2V29.524H157.908V28.636H163.572ZM167.784 37.108C167.168 37.108 166.608 36.968 166.104 36.688C165.608 36.408 165.216 36.012 164.928 35.5C164.648 34.98 164.508 34.38 164.508 33.7C164.508 33.028 164.652 32.436 164.94 31.924C165.236 31.404 165.636 31.008 166.14 30.736C166.644 30.456 167.208 30.316 167.832 30.316C168.456 30.316 169.02 30.456 169.524 30.736C170.028 31.008 170.424 31.4 170.712 31.912C171.008 32.424 171.156 33.02 171.156 33.7C171.156 34.38 171.004 34.98 170.7 35.5C170.404 36.012 170 36.408 169.488 36.688C168.976 36.968 168.408 37.108 167.784 37.108ZM167.784 36.148C168.176 36.148 168.544 36.056 168.888 35.872C169.232 35.688 169.508 35.412 169.716 35.044C169.932 34.676 170.04 34.228 170.04 33.7C170.04 33.172 169.936 32.724 169.728 32.356C169.52 31.988 169.248 31.716 168.912 31.54C168.576 31.356 168.212 31.264 167.82 31.264C167.42 31.264 167.052 31.356 166.716 31.54C166.388 31.716 166.124 31.988 165.924 32.356C165.724 32.724 165.624 33.172 165.624 33.7C165.624 34.236 165.72 34.688 165.912 35.056C166.112 35.424 166.376 35.7 166.704 35.884C167.032 36.06 167.392 36.148 167.784 36.148ZM173.924 31.324V35.2C173.924 35.52 173.992 35.748 174.128 35.884C174.264 36.012 174.5 36.076 174.836 36.076H175.64V37H174.656C174.048 37 173.592 36.86 173.288 36.58C172.984 36.3 172.832 35.84 172.832 35.2V31.324H171.98V30.424H172.832V28.768H173.924V30.424H175.64V31.324H173.924ZM176.555 33.688C176.555 33.016 176.691 32.428 176.963 31.924C177.235 31.412 177.607 31.016 178.079 30.736C178.559 30.456 179.091 30.316 179.675 30.316C180.251 30.316 180.751 30.44 181.175 30.688C181.599 30.936 181.915 31.248 182.123 31.624V30.424H183.227V37H182.123V35.776C181.907 36.16 181.583 36.48 181.151 36.736C180.727 36.984 180.231 37.108 179.663 37.108C179.079 37.108 178.551 36.964 178.079 36.676C177.607 36.388 177.235 35.984 176.963 35.464C176.691 34.944 176.555 34.352 176.555 33.688ZM182.123 33.7C182.123 33.204 182.023 32.772 181.823 32.404C181.623 32.036 181.351 31.756 181.007 31.564C180.671 31.364 180.299 31.264 179.891 31.264C179.483 31.264 179.111 31.36 178.775 31.552C178.439 31.744 178.171 32.024 177.971 32.392C177.771 32.76 177.671 33.192 177.671 33.688C177.671 34.192 177.771 34.632 177.971 35.008C178.171 35.376 178.439 35.66 178.775 35.86C179.111 36.052 179.483 36.148 179.891 36.148C180.299 36.148 180.671 36.052 181.007 35.86C181.351 35.66 181.623 35.376 181.823 35.008C182.023 34.632 182.123 34.196 182.123 33.7ZM186.164 28.12V37H185.072V28.12H186.164ZM192.317 31.636C192.533 31.26 192.853 30.948 193.277 30.7C193.709 30.444 194.209 30.316 194.777 30.316C195.361 30.316 195.889 30.456 196.361 30.736C196.841 31.016 197.217 31.412 197.489 31.924C197.761 32.428 197.897 33.016 197.897 33.688C197.897 34.352 197.761 34.944 197.489 35.464C197.217 35.984 196.841 36.388 196.361 36.676C195.889 36.964 195.361 37.108 194.777 37.108C194.217 37.108 193.721 36.984 193.289 36.736C192.865 36.48 192.541 36.164 192.317 35.788V40.12H191.225V30.424H192.317V31.636ZM196.781 33.688C196.781 33.192 196.681 32.76 196.481 32.392C196.281 32.024 196.009 31.744 195.665 31.552C195.329 31.36 194.957 31.264 194.549 31.264C194.149 31.264 193.777 31.364 193.433 31.564C193.097 31.756 192.825 32.04 192.617 32.416C192.417 32.784 192.317 33.212 192.317 33.7C192.317 34.196 192.417 34.632 192.617 35.008C192.825 35.376 193.097 35.66 193.433 35.86C193.777 36.052 194.149 36.148 194.549 36.148C194.957 36.148 195.329 36.052 195.665 35.86C196.009 35.66 196.281 35.376 196.481 35.008C196.681 34.632 196.781 34.192 196.781 33.688ZM202.202 37.108C201.586 37.108 201.026 36.968 200.522 36.688C200.026 36.408 199.634 36.012 199.346 35.5C199.066 34.98 198.926 34.38 198.926 33.7C198.926 33.028 199.07 32.436 199.358 31.924C199.654 31.404 200.054 31.008 200.558 30.736C201.062 30.456 201.626 30.316 202.25 30.316C202.874 30.316 203.438 30.456 203.942 30.736C204.446 31.008 204.842 31.4 205.13 31.912C205.426 32.424 205.574 33.02 205.574 33.7C205.574 34.38 205.422 34.98 205.118 35.5C204.822 36.012 204.418 36.408 203.906 36.688C203.394 36.968 202.826 37.108 202.202 37.108ZM202.202 36.148C202.594 36.148 202.962 36.056 203.306 35.872C203.65 35.688 203.926 35.412 204.134 35.044C204.35 34.676 204.458 34.228 204.458 33.7C204.458 33.172 204.354 32.724 204.146 32.356C203.938 31.988 203.666 31.716 203.33 31.54C202.994 31.356 202.63 31.264 202.238 31.264C201.838 31.264 201.47 31.356 201.134 31.54C200.806 31.716 200.542 31.988 200.342 32.356C200.142 32.724 200.042 33.172 200.042 33.7C200.042 34.236 200.138 34.688 200.33 35.056C200.53 35.424 200.794 35.7 201.122 35.884C201.45 36.06 201.81 36.148 202.202 36.148ZM209.338 37.108C208.834 37.108 208.382 37.024 207.982 36.856C207.582 36.68 207.266 36.44 207.034 36.136C206.802 35.824 206.674 35.468 206.65 35.068H207.778C207.81 35.396 207.962 35.664 208.234 35.872C208.514 36.08 208.878 36.184 209.326 36.184C209.742 36.184 210.07 36.092 210.31 35.908C210.55 35.724 210.67 35.492 210.67 35.212C210.67 34.924 210.542 34.712 210.286 34.576C210.03 34.432 209.634 34.292 209.098 34.156C208.61 34.028 208.21 33.9 207.898 33.772C207.594 33.636 207.33 33.44 207.106 33.184C206.89 32.92 206.782 32.576 206.782 32.152C206.782 31.816 206.882 31.508 207.082 31.228C207.282 30.948 207.566 30.728 207.934 30.568C208.302 30.4 208.722 30.316 209.194 30.316C209.922 30.316 210.51 30.5 210.958 30.868C211.406 31.236 211.646 31.74 211.678 32.38H210.586C210.562 32.036 210.422 31.76 210.166 31.552C209.918 31.344 209.582 31.24 209.158 31.24C208.766 31.24 208.454 31.324 208.222 31.492C207.99 31.66 207.874 31.88 207.874 32.152C207.874 32.368 207.942 32.548 208.078 32.692C208.222 32.828 208.398 32.94 208.606 33.028C208.822 33.108 209.118 33.2 209.494 33.304C209.966 33.432 210.35 33.56 210.646 33.688C210.942 33.808 211.194 33.992 211.402 34.24C211.618 34.488 211.73 34.812 211.738 35.212C211.738 35.572 211.638 35.896 211.438 36.184C211.238 36.472 210.954 36.7 210.586 36.868C210.226 37.028 209.81 37.108 209.338 37.108ZM214.611 31.324V35.2C214.611 35.52 214.679 35.748 214.815 35.884C214.951 36.012 215.187 36.076 215.523 36.076H216.327V37H215.343C214.735 37 214.279 36.86 213.975 36.58C213.671 36.3 213.519 35.84 213.519 35.2V31.324H212.667V30.424H213.519V28.768H214.611V30.424H216.327V31.324H214.611Z" fill="#6D6E6F"/>
<path d="M158.364 77.6V74.504H164.148V92H160.692V77.6H158.364ZM168.523 88.208C170.059 86.928 171.283 85.864 172.195 85.016C173.107 84.152 173.867 83.256 174.475 82.328C175.083 81.4 175.387 80.488 175.387 79.592C175.387 78.776 175.195 78.136 174.811 77.672C174.427 77.208 173.835 76.976 173.035 76.976C172.235 76.976 171.619 77.248 171.187 77.792C170.755 78.32 170.531 79.048 170.515 79.976H167.251C167.315 78.056 167.883 76.6 168.955 75.608C170.043 74.616 171.419 74.12 173.083 74.12C174.907 74.12 176.307 74.608 177.283 75.584C178.259 76.544 178.747 77.816 178.747 79.4C178.747 80.648 178.411 81.84 177.739 82.976C177.067 84.112 176.299 85.104 175.435 85.952C174.571 86.784 173.443 87.792 172.051 88.976H179.131V91.76H167.275V89.264L168.523 88.208ZM181.249 83.024C181.249 80.256 181.745 78.088 182.737 76.52C183.745 74.952 185.409 74.168 187.729 74.168C190.049 74.168 191.705 74.952 192.697 76.52C193.705 78.088 194.209 80.256 194.209 83.024C194.209 85.808 193.705 87.992 192.697 89.576C191.705 91.16 190.049 91.952 187.729 91.952C185.409 91.952 183.745 91.16 182.737 89.576C181.745 87.992 181.249 85.808 181.249 83.024ZM190.897 83.024C190.897 81.84 190.817 80.848 190.657 80.048C190.513 79.232 190.209 78.568 189.745 78.056C189.297 77.544 188.625 77.288 187.729 77.288C186.833 77.288 186.153 77.544 185.689 78.056C185.241 78.568 184.937 79.232 184.777 80.048C184.633 80.848 184.561 81.84 184.561 83.024C184.561 84.24 184.633 85.264 184.777 86.096C184.921 86.912 185.225 87.576 185.689 88.088C186.153 88.584 186.833 88.832 187.729 88.832C188.625 88.832 189.305 88.584 189.769 88.088C190.233 87.576 190.537 86.912 190.681 86.096C190.825 85.264 190.897 84.24 190.897 83.024Z" fill="#010101"/>
<path d="M220.999 78.2666H214.462C214.413 78.2666 214.365 78.2864 214.33 78.3215C214.295 78.3567 214.275 78.4044 214.275 78.4541V79.8754C214.275 79.9251 214.295 79.9728 214.33 80.0079C214.365 80.0431 214.413 80.0629 214.462 80.0629H218.115L212.689 85.4179L207.472 81.6979L206.977 81.3491C206.942 81.3274 206.9 81.3182 206.859 81.323C206.817 81.3277 206.779 81.3462 206.749 81.3754L199.864 88.4291C199.846 88.4462 199.832 88.4666 199.823 88.4892C199.813 88.5117 199.809 88.5359 199.809 88.5604C199.809 88.5848 199.813 88.609 199.823 88.6315C199.832 88.6541 199.846 88.6745 199.864 88.6916L200.876 89.6816C200.893 89.6988 200.914 89.7123 200.937 89.7213C200.959 89.7303 200.983 89.7347 201.007 89.7341C201.032 89.7344 201.056 89.7296 201.079 89.7199C201.102 89.7102 201.122 89.6959 201.139 89.6779L207.06 83.5991L212.265 87.3079L212.749 87.6529C212.785 87.6784 212.828 87.6905 212.872 87.6871C212.916 87.6837 212.957 87.6649 212.989 87.6341L219.397 81.3004V84.9904C219.397 85.0401 219.417 85.0878 219.452 85.1229C219.488 85.1581 219.535 85.1779 219.585 85.1779H220.999C221.048 85.1779 221.096 85.1581 221.131 85.1229C221.166 85.0878 221.186 85.0401 221.186 84.9904V78.4541C221.186 78.4044 221.166 78.3567 221.131 78.3215C221.096 78.2864 221.048 78.2666 220.999 78.2666Z" fill="#003BDD"/>
<path d="M229.22 84.508C229.276 83.772 229.56 83.196 230.072 82.78C230.584 82.364 231.248 82.156 232.064 82.156C232.608 82.156 233.076 82.256 233.468 82.456C233.868 82.648 234.168 82.912 234.368 83.248C234.576 83.584 234.68 83.964 234.68 84.388C234.68 84.884 234.536 85.312 234.248 85.672C233.968 86.032 233.6 86.264 233.144 86.368V86.428C233.664 86.556 234.076 86.808 234.38 87.184C234.684 87.56 234.836 88.052 234.836 88.66C234.836 89.116 234.732 89.528 234.524 89.896C234.316 90.256 234.004 90.54 233.588 90.748C233.172 90.956 232.672 91.06 232.088 91.06C231.24 91.06 230.544 90.84 230 90.4C229.456 89.952 229.152 89.32 229.088 88.504H230.144C230.2 88.984 230.396 89.376 230.732 89.68C231.068 89.984 231.516 90.136 232.076 90.136C232.636 90.136 233.06 89.992 233.348 89.704C233.644 89.408 233.792 89.028 233.792 88.564C233.792 87.964 233.592 87.532 233.192 87.268C232.792 87.004 232.188 86.872 231.38 86.872H231.104V85.96H231.392C232.128 85.952 232.684 85.832 233.06 85.6C233.436 85.36 233.624 84.992 233.624 84.496C233.624 84.072 233.484 83.732 233.204 83.476C232.932 83.22 232.54 83.092 232.028 83.092C231.532 83.092 231.132 83.22 230.828 83.476C230.524 83.732 230.344 84.076 230.288 84.508H229.22ZM236.31 86.572C236.31 85.196 236.534 84.124 236.982 83.356C237.43 82.58 238.214 82.192 239.334 82.192C240.446 82.192 241.226 82.58 241.674 83.356C242.122 84.124 242.346 85.196 242.346 86.572C242.346 87.972 242.122 89.06 241.674 89.836C241.226 90.612 240.446 91 239.334 91C238.214 91 237.43 90.612 236.982 89.836C236.534 89.06 236.31 87.972 236.31 86.572ZM241.266 86.572C241.266 85.876 241.218 85.288 241.122 84.808C241.034 84.32 240.846 83.928 240.558 83.632C240.278 83.336 239.87 83.188 239.334 83.188C238.79 83.188 238.374 83.336 238.086 83.632C237.806 83.928 237.618 84.32 237.522 84.808C237.434 85.288 237.39 85.876 237.39 86.572C237.39 87.292 237.434 87.896 237.522 88.384C237.618 88.872 237.806 89.264 238.086 89.56C238.374 89.856 238.79 90.004 239.334 90.004C239.87 90.004 240.278 89.856 240.558 89.56C240.846 89.264 241.034 88.872 241.122 88.384C241.218 87.896 241.266 87.292 241.266 86.572ZM244.374 91.072C244.166 91.072 243.99 91 243.846 90.856C243.702 90.712 243.63 90.536 243.63 90.328C243.63 90.12 243.702 89.944 243.846 89.8C243.99 89.656 244.166 89.584 244.374 89.584C244.574 89.584 244.742 89.656 244.878 89.8C245.022 89.944 245.094 90.12 245.094 90.328C245.094 90.536 245.022 90.712 244.878 90.856C244.742 91 244.574 91.072 244.374 91.072ZM251.897 83.272H247.685V86.008C247.869 85.752 248.141 85.544 248.501 85.384C248.861 85.216 249.249 85.132 249.665 85.132C250.329 85.132 250.869 85.272 251.285 85.552C251.701 85.824 251.997 86.18 252.173 86.62C252.357 87.052 252.449 87.512 252.449 88C252.449 88.576 252.341 89.092 252.125 89.548C251.909 90.004 251.577 90.364 251.129 90.628C250.689 90.892 250.141 91.024 249.485 91.024C248.645 91.024 247.965 90.808 247.445 90.376C246.925 89.944 246.609 89.368 246.497 88.648H247.565C247.669 89.104 247.889 89.46 248.225 89.716C248.561 89.972 248.985 90.1 249.497 90.1C250.129 90.1 250.605 89.912 250.925 89.536C251.245 89.152 251.405 88.648 251.405 88.024C251.405 87.4 251.245 86.92 250.925 86.584C250.605 86.24 250.133 86.068 249.509 86.068C249.085 86.068 248.713 86.172 248.393 86.38C248.081 86.58 247.853 86.856 247.709 87.208H246.677V82.312H251.897V83.272ZM253.66 84.28C253.66 83.736 253.824 83.304 254.152 82.984C254.48 82.656 254.9 82.492 255.412 82.492C255.924 82.492 256.344 82.656 256.672 82.984C257 83.304 257.164 83.736 257.164 84.28C257.164 84.832 257 85.272 256.672 85.6C256.344 85.92 255.924 86.08 255.412 86.08C254.9 86.08 254.48 85.92 254.152 85.6C253.824 85.272 253.66 84.832 253.66 84.28ZM260.668 82.624L255.808 91H254.728L259.588 82.624H260.668ZM255.412 83.164C255.14 83.164 254.924 83.26 254.764 83.452C254.612 83.636 254.536 83.912 254.536 84.28C254.536 84.648 254.612 84.928 254.764 85.12C254.924 85.312 255.14 85.408 255.412 85.408C255.684 85.408 255.9 85.312 256.06 85.12C256.22 84.92 256.3 84.64 256.3 84.28C256.3 83.912 256.22 83.636 256.06 83.452C255.9 83.26 255.684 83.164 255.412 83.164ZM258.256 89.344C258.256 88.792 258.42 88.356 258.748 88.036C259.076 87.708 259.496 87.544 260.008 87.544C260.52 87.544 260.936 87.708 261.256 88.036C261.584 88.356 261.748 88.792 261.748 89.344C261.748 89.888 261.584 90.324 261.256 90.652C260.936 90.98 260.52 91.144 260.008 91.144C259.496 91.144 259.076 90.984 258.748 90.664C258.42 90.336 258.256 89.896 258.256 89.344ZM259.996 88.228C259.724 88.228 259.508 88.324 259.348 88.516C259.188 88.7 259.108 88.976 259.108 89.344C259.108 89.704 259.188 89.98 259.348 90.172C259.508 90.356 259.724 90.448 259.996 90.448C260.268 90.448 260.484 90.356 260.644 90.172C260.804 89.98 260.884 89.704 260.884 89.344C260.884 88.976 260.804 88.7 260.644 88.516C260.484 88.324 260.268 88.228 259.996 88.228Z" fill="#003BDD"/>
</g>
<g filter="url(#filter1_d_4647_1660)">
<rect x="7" y="101" width="325" height="120" rx="16" fill="white" shape-rendering="crispEdges"/>
<rect x="52" y="116.5" width="88" height="89" rx="44" fill="#003BDD" fill-opacity="0.1"/>
<path d="M100.78 150.3C99.26 150.3 97.76 150.76 96.5 151.6C95.24 150.76 93.74 150.3 92.22 150.3C87.96 150.3 84.5 153.76 84.5 158.02C84.5 160.46 85.64 162.72 87.5 164.1L95.8 172.4C96 172.6 96.26 172.7 96.5 172.7C96.74 172.7 97.02 172.6 97.2 172.4L105.38 164.2C107.36 162.72 108.5 160.48 108.5 158.02C108.5 153.76 105.04 150.3 100.78 150.3ZM104.08 162.7L96.5 170.28L88.8 162.6C87.34 161.5 86.5 159.84 86.5 158.02C86.5 154.86 89.06 152.3 92.22 152.3C93.54 152.3 94.84 152.76 95.86 153.6C96.24 153.9 96.76 153.9 97.14 153.6C98.16 152.76 99.46 152.3 100.78 152.3C103.94 152.3 106.5 154.86 106.5 158.02C106.5 159.84 105.66 161.5 104.08 162.7Z" fill="#003BDD"/>
<path d="M161.868 133.14H158.22L157.548 135H156.396L159.42 126.684H160.68L163.692 135H162.54L161.868 133.14ZM161.556 132.252L160.044 128.028L158.532 132.252H161.556ZM164.602 131.7C164.602 131.02 164.738 130.428 165.01 129.924C165.282 129.412 165.658 129.016 166.138 128.736C166.626 128.456 167.182 128.316 167.806 128.316C168.614 128.316 169.278 128.512 169.798 128.904C170.326 129.296 170.674 129.84 170.842 130.536H169.666C169.554 130.136 169.334 129.82 169.006 129.588C168.686 129.356 168.286 129.24 167.806 129.24C167.182 129.24 166.678 129.456 166.294 129.888C165.91 130.312 165.718 130.916 165.718 131.7C165.718 132.492 165.91 133.104 166.294 133.536C166.678 133.968 167.182 134.184 167.806 134.184C168.286 134.184 168.686 134.072 169.006 133.848C169.326 133.624 169.546 133.304 169.666 132.888H170.842C170.666 133.56 170.314 134.1 169.786 134.508C169.258 134.908 168.598 135.108 167.806 135.108C167.182 135.108 166.626 134.968 166.138 134.688C165.658 134.408 165.282 134.012 165.01 133.5C164.738 132.988 164.602 132.388 164.602 131.7ZM173.631 129.324V133.2C173.631 133.52 173.699 133.748 173.835 133.884C173.971 134.012 174.207 134.076 174.543 134.076H175.347V135H174.363C173.755 135 173.299 134.86 172.995 134.58C172.691 134.3 172.539 133.84 172.539 133.2V129.324H171.687V128.424H172.539V126.768H173.631V128.424H175.347V129.324H173.631ZM177.234 127.356C177.026 127.356 176.85 127.284 176.706 127.14C176.562 126.996 176.49 126.82 176.49 126.612C176.49 126.404 176.562 126.228 176.706 126.084C176.85 125.94 177.026 125.868 177.234 125.868C177.434 125.868 177.602 125.94 177.738 126.084C177.882 126.228 177.954 126.404 177.954 126.612C177.954 126.82 177.882 126.996 177.738 127.14C177.602 127.284 177.434 127.356 177.234 127.356ZM177.762 128.424V135H176.67V128.424H177.762ZM182.071 133.992L184.111 128.424H185.275L182.695 135H181.423L178.843 128.424H180.019L182.071 133.992ZM192.35 131.46C192.35 131.668 192.338 131.888 192.314 132.12H187.058C187.098 132.768 187.318 133.276 187.718 133.644C188.126 134.004 188.618 134.184 189.194 134.184C189.666 134.184 190.058 134.076 190.37 133.86C190.69 133.636 190.914 133.34 191.042 132.972H192.218C192.042 133.604 191.69 134.12 191.162 134.52C190.634 134.912 189.978 135.108 189.194 135.108C188.57 135.108 188.01 134.968 187.514 134.688C187.026 134.408 186.642 134.012 186.362 133.5C186.082 132.98 185.942 132.38 185.942 131.7C185.942 131.02 186.078 130.424 186.35 129.912C186.622 129.4 187.002 129.008 187.49 128.736C187.986 128.456 188.554 128.316 189.194 128.316C189.818 128.316 190.37 128.452 190.85 128.724C191.33 128.996 191.698 129.372 191.954 129.852C192.218 130.324 192.35 130.86 192.35 131.46ZM191.222 131.232C191.222 130.816 191.13 130.46 190.946 130.164C190.762 129.86 190.51 129.632 190.19 129.48C189.878 129.32 189.53 129.24 189.146 129.24C188.594 129.24 188.122 129.416 187.73 129.768C187.346 130.12 187.126 130.608 187.07 131.232H191.222ZM198.082 129.636C198.298 129.26 198.618 128.948 199.042 128.7C199.474 128.444 199.974 128.316 200.542 128.316C201.126 128.316 201.654 128.456 202.126 128.736C202.606 129.016 202.982 129.412 203.254 129.924C203.526 130.428 203.662 131.016 203.662 131.688C203.662 132.352 203.526 132.944 203.254 133.464C202.982 133.984 202.606 134.388 202.126 134.676C201.654 134.964 201.126 135.108 200.542 135.108C199.982 135.108 199.486 134.984 199.054 134.736C198.63 134.48 198.306 134.164 198.082 133.788V138.12H196.99V128.424H198.082V129.636ZM202.546 131.688C202.546 131.192 202.446 130.76 202.246 130.392C202.046 130.024 201.774 129.744 201.43 129.552C201.094 129.36 200.722 129.264 200.314 129.264C199.914 129.264 199.542 129.364 199.198 129.564C198.862 129.756 198.59 130.04 198.382 130.416C198.182 130.784 198.082 131.212 198.082 131.7C198.082 132.196 198.182 132.632 198.382 133.008C198.59 133.376 198.862 133.66 199.198 133.86C199.542 134.052 199.914 134.148 200.314 134.148C200.722 134.148 201.094 134.052 201.43 133.86C201.774 133.66 202.046 133.376 202.246 133.008C202.446 132.632 202.546 132.192 202.546 131.688ZM207.968 135.108C207.352 135.108 206.792 134.968 206.288 134.688C205.792 134.408 205.4 134.012 205.112 133.5C204.832 132.98 204.692 132.38 204.692 131.7C204.692 131.028 204.836 130.436 205.124 129.924C205.42 129.404 205.82 129.008 206.324 128.736C206.828 128.456 207.392 128.316 208.016 128.316C208.64 128.316 209.204 128.456 209.708 128.736C210.212 129.008 210.608 129.4 210.896 129.912C211.192 130.424 211.34 131.02 211.34 131.7C211.34 132.38 211.188 132.98 210.884 133.5C210.588 134.012 210.184 134.408 209.672 134.688C209.16 134.968 208.592 135.108 207.968 135.108ZM207.968 134.148C208.36 134.148 208.728 134.056 209.072 133.872C209.416 133.688 209.692 133.412 209.9 133.044C210.116 132.676 210.224 132.228 210.224 131.7C210.224 131.172 210.12 130.724 209.912 130.356C209.704 129.988 209.432 129.716 209.096 129.54C208.76 129.356 208.396 129.264 208.004 129.264C207.604 129.264 207.236 129.356 206.9 129.54C206.572 129.716 206.308 129.988 206.108 130.356C205.908 130.724 205.808 131.172 205.808 131.7C205.808 132.236 205.904 132.688 206.096 133.056C206.296 133.424 206.56 133.7 206.888 133.884C207.216 134.06 207.576 134.148 207.968 134.148ZM215.104 135.108C214.6 135.108 214.148 135.024 213.748 134.856C213.348 134.68 213.032 134.44 212.8 134.136C212.568 133.824 212.44 133.468 212.416 133.068H213.544C213.576 133.396 213.728 133.664 214 133.872C214.28 134.08 214.644 134.184 215.092 134.184C215.508 134.184 215.836 134.092 216.076 133.908C216.316 133.724 216.436 133.492 216.436 133.212C216.436 132.924 216.308 132.712 216.052 132.576C215.796 132.432 215.4 132.292 214.864 132.156C214.376 132.028 213.976 131.9 213.664 131.772C213.36 131.636 213.096 131.44 212.872 131.184C212.656 130.92 212.548 130.576 212.548 130.152C212.548 129.816 212.648 129.508 212.848 129.228C213.048 128.948 213.332 128.728 213.7 128.568C214.068 128.4 214.488 128.316 214.96 128.316C215.688 128.316 216.276 128.5 216.724 128.868C217.172 129.236 217.412 129.74 217.444 130.38H216.352C216.328 130.036 216.188 129.76 215.932 129.552C215.684 129.344 215.348 129.24 214.924 129.24C214.532 129.24 214.22 129.324 213.988 129.492C213.756 129.66 213.64 129.88 213.64 130.152C213.64 130.368 213.708 130.548 213.844 130.692C213.988 130.828 214.164 130.94 214.372 131.028C214.588 131.108 214.884 131.2 215.26 131.304C215.732 131.432 216.116 131.56 216.412 131.688C216.708 131.808 216.96 131.992 217.168 132.24C217.384 132.488 217.496 132.812 217.504 133.212C217.504 133.572 217.404 133.896 217.204 134.184C217.004 134.472 216.72 134.7 216.352 134.868C215.992 135.028 215.576 135.108 215.104 135.108ZM220.377 129.324V133.2C220.377 133.52 220.445 133.748 220.581 133.884C220.717 134.012 220.953 134.076 221.289 134.076H222.093V135H221.109C220.501 135 220.045 134.86 219.741 134.58C219.437 134.3 219.285 133.84 219.285 133.2V129.324H218.433V128.424H219.285V126.768H220.377V128.424H222.093V129.324H220.377Z" fill="#6D6E6F"/>
<path d="M156.864 175.6V172.504H162.648V190H159.192V175.6H156.864ZM177.727 175.408H169.951V179.512C170.287 179.096 170.767 178.76 171.391 178.504C172.015 178.232 172.679 178.096 173.383 178.096C174.663 178.096 175.711 178.376 176.527 178.936C177.343 179.496 177.935 180.216 178.303 181.096C178.671 181.96 178.855 182.888 178.855 183.88C178.855 185.72 178.327 187.2 177.271 188.32C176.231 189.44 174.743 190 172.807 190C170.983 190 169.527 189.544 168.439 188.632C167.351 187.72 166.735 186.528 166.591 185.056H169.855C169.999 185.696 170.319 186.208 170.815 186.592C171.327 186.976 171.975 187.168 172.759 187.168C173.703 187.168 174.415 186.872 174.895 186.28C175.375 185.688 175.615 184.904 175.615 183.928C175.615 182.936 175.367 182.184 174.871 181.672C174.391 181.144 173.679 180.88 172.735 180.88C172.063 180.88 171.503 181.048 171.055 181.384C170.607 181.72 170.287 182.168 170.095 182.728H166.879V172.456H177.727V175.408ZM183.285 190.168C182.677 190.168 182.173 189.984 181.773 189.616C181.389 189.232 181.197 188.76 181.197 188.2C181.197 187.64 181.389 187.176 181.773 186.808C182.173 186.424 182.677 186.232 183.285 186.232C183.877 186.232 184.365 186.424 184.749 186.808C185.133 187.176 185.325 187.64 185.325 188.2C185.325 188.76 185.133 189.232 184.749 189.616C184.365 189.984 183.877 190.168 183.285 190.168ZM196.719 176.872C196.559 176.2 196.279 175.696 195.879 175.36C195.495 175.024 194.935 174.856 194.199 174.856C193.095 174.856 192.279 175.304 191.751 176.2C191.239 177.08 190.975 178.52 190.959 180.52C191.343 179.88 191.903 179.384 192.639 179.032C193.375 178.664 194.175 178.48 195.039 178.48C196.079 178.48 196.999 178.704 197.799 179.152C198.599 179.6 199.223 180.256 199.671 181.12C200.119 181.968 200.343 182.992 200.343 184.192C200.343 185.328 200.111 186.344 199.647 187.24C199.199 188.12 198.535 188.808 197.655 189.304C196.775 189.8 195.727 190.048 194.511 190.048C192.847 190.048 191.535 189.68 190.575 188.944C189.631 188.208 188.967 187.184 188.583 185.872C188.215 184.544 188.031 182.912 188.031 180.976C188.031 178.048 188.535 175.84 189.543 174.352C190.551 172.848 192.143 172.096 194.319 172.096C195.999 172.096 197.303 172.552 198.231 173.464C199.159 174.376 199.695 175.512 199.839 176.872H196.719ZM194.271 181.24C193.423 181.24 192.711 181.488 192.135 181.984C191.559 182.48 191.271 183.2 191.271 184.144C191.271 185.088 191.535 185.832 192.063 186.376C192.607 186.92 193.367 187.192 194.343 187.192C195.207 187.192 195.887 186.928 196.383 186.4C196.895 185.872 197.151 185.16 197.151 184.264C197.151 183.336 196.903 182.6 196.407 182.056C195.927 181.512 195.215 181.24 194.271 181.24ZM202.615 176.8C202.615 175.584 202.967 174.632 203.671 173.944C204.391 173.256 205.311 172.912 206.431 172.912C207.551 172.912 208.463 173.256 209.167 173.944C209.887 174.632 210.247 175.584 210.247 176.8C210.247 178.032 209.887 178.992 209.167 179.68C208.463 180.368 207.551 180.712 206.431 180.712C205.311 180.712 204.391 180.368 203.671 179.68C202.967 178.992 202.615 178.032 202.615 176.8ZM218.023 173.2L208.591 190H205.327L214.735 173.2H218.023ZM206.407 174.928C205.527 174.928 205.087 175.552 205.087 176.8C205.087 178.064 205.527 178.696 206.407 178.696C206.839 178.696 207.175 178.544 207.415 178.24C207.655 177.92 207.775 177.44 207.775 176.8C207.775 175.552 207.319 174.928 206.407 174.928ZM213.151 186.376C213.151 185.144 213.503 184.192 214.207 183.52C214.927 182.832 215.847 182.488 216.967 182.488C218.087 182.488 218.991 182.832 219.679 183.52C220.383 184.192 220.735 185.144 220.735 186.376C220.735 187.608 220.383 188.568 219.679 189.256C218.991 189.944 218.087 190.288 216.967 190.288C215.831 190.288 214.911 189.944 214.207 189.256C213.503 188.568 213.151 187.608 213.151 186.376ZM216.943 184.504C216.031 184.504 215.575 185.128 215.575 186.376C215.575 187.64 216.031 188.272 216.943 188.272C217.839 188.272 218.287 187.64 218.287 186.376C218.287 185.128 217.839 184.504 216.943 184.504Z" fill="#010101"/>
<path d="M247.499 176.267H240.962C240.913 176.267 240.865 176.286 240.83 176.322C240.795 176.357 240.775 176.404 240.775 176.454V177.875C240.775 177.925 240.795 177.973 240.83 178.008C240.865 178.043 240.913 178.063 240.962 178.063H244.615L239.189 183.418L233.972 179.698L233.477 179.349C233.442 179.327 233.4 179.318 233.359 179.323C233.317 179.328 233.279 179.346 233.249 179.375L226.364 186.429C226.346 186.446 226.332 186.467 226.323 186.489C226.313 186.512 226.309 186.536 226.309 186.56C226.309 186.585 226.313 186.609 226.323 186.632C226.332 186.654 226.346 186.674 226.364 186.692L227.376 187.682C227.393 187.699 227.414 187.712 227.437 187.721C227.459 187.73 227.483 187.735 227.507 187.734C227.532 187.734 227.556 187.73 227.579 187.72C227.602 187.71 227.622 187.696 227.639 187.678L233.56 181.599L238.765 185.308L239.249 185.653C239.285 185.678 239.328 185.691 239.372 185.687C239.416 185.684 239.457 185.665 239.489 185.634L245.897 179.3V182.99C245.897 183.04 245.917 183.088 245.952 183.123C245.988 183.158 246.035 183.178 246.085 183.178H247.499C247.548 183.178 247.596 183.158 247.631 183.123C247.666 183.088 247.686 183.04 247.686 182.99V176.454C247.686 176.404 247.666 176.357 247.631 176.322C247.596 176.286 247.548 176.267 247.499 176.267Z" fill="#003BDD"/>
<path d="M255.72 182.508C255.776 181.772 256.06 181.196 256.572 180.78C257.084 180.364 257.748 180.156 258.564 180.156C259.108 180.156 259.576 180.256 259.968 180.456C260.368 180.648 260.668 180.912 260.868 181.248C261.076 181.584 261.18 181.964 261.18 182.388C261.18 182.884 261.036 183.312 260.748 183.672C260.468 184.032 260.1 184.264 259.644 184.368V184.428C260.164 184.556 260.576 184.808 260.88 185.184C261.184 185.56 261.336 186.052 261.336 186.66C261.336 187.116 261.232 187.528 261.024 187.896C260.816 188.256 260.504 188.54 260.088 188.748C259.672 188.956 259.172 189.06 258.588 189.06C257.74 189.06 257.044 188.84 256.5 188.4C255.956 187.952 255.652 187.32 255.588 186.504H256.644C256.7 186.984 256.896 187.376 257.232 187.68C257.568 187.984 258.016 188.136 258.576 188.136C259.136 188.136 259.56 187.992 259.848 187.704C260.144 187.408 260.292 187.028 260.292 186.564C260.292 185.964 260.092 185.532 259.692 185.268C259.292 185.004 258.688 184.872 257.88 184.872H257.604V183.96H257.892C258.628 183.952 259.184 183.832 259.56 183.6C259.936 183.36 260.124 182.992 260.124 182.496C260.124 182.072 259.984 181.732 259.704 181.476C259.432 181.22 259.04 181.092 258.528 181.092C258.032 181.092 257.632 181.22 257.328 181.476C257.024 181.732 256.844 182.076 256.788 182.508H255.72ZM262.81 184.572C262.81 183.196 263.034 182.124 263.482 181.356C263.93 180.58 264.714 180.192 265.834 180.192C266.946 180.192 267.726 180.58 268.174 181.356C268.622 182.124 268.846 183.196 268.846 184.572C268.846 185.972 268.622 187.06 268.174 187.836C267.726 188.612 266.946 189 265.834 189C264.714 189 263.93 188.612 263.482 187.836C263.034 187.06 262.81 185.972 262.81 184.572ZM267.766 184.572C267.766 183.876 267.718 183.288 267.622 182.808C267.534 182.32 267.346 181.928 267.058 181.632C266.778 181.336 266.37 181.188 265.834 181.188C265.29 181.188 264.874 181.336 264.586 181.632C264.306 181.928 264.118 182.32 264.022 182.808C263.934 183.288 263.89 183.876 263.89 184.572C263.89 185.292 263.934 185.896 264.022 186.384C264.118 186.872 264.306 187.264 264.586 187.56C264.874 187.856 265.29 188.004 265.834 188.004C266.37 188.004 266.778 187.856 267.058 187.56C267.346 187.264 267.534 186.872 267.622 186.384C267.718 185.896 267.766 185.292 267.766 184.572ZM270.874 189.072C270.666 189.072 270.49 189 270.346 188.856C270.202 188.712 270.13 188.536 270.13 188.328C270.13 188.12 270.202 187.944 270.346 187.8C270.49 187.656 270.666 187.584 270.874 187.584C271.074 187.584 271.242 187.656 271.378 187.8C271.522 187.944 271.594 188.12 271.594 188.328C271.594 188.536 271.522 188.712 271.378 188.856C271.242 189 271.074 189.072 270.874 189.072ZM278.397 181.272H274.185V184.008C274.369 183.752 274.641 183.544 275.001 183.384C275.361 183.216 275.749 183.132 276.165 183.132C276.829 183.132 277.369 183.272 277.785 183.552C278.201 183.824 278.497 184.18 278.673 184.62C278.857 185.052 278.949 185.512 278.949 186C278.949 186.576 278.841 187.092 278.625 187.548C278.409 188.004 278.077 188.364 277.629 188.628C277.189 188.892 276.641 189.024 275.985 189.024C275.145 189.024 274.465 188.808 273.945 188.376C273.425 187.944 273.109 187.368 272.997 186.648H274.065C274.169 187.104 274.389 187.46 274.725 187.716C275.061 187.972 275.485 188.1 275.997 188.1C276.629 188.1 277.105 187.912 277.425 187.536C277.745 187.152 277.905 186.648 277.905 186.024C277.905 185.4 277.745 184.92 277.425 184.584C277.105 184.24 276.633 184.068 276.009 184.068C275.585 184.068 275.213 184.172 274.893 184.38C274.581 184.58 274.353 184.856 274.209 185.208H273.177V180.312H278.397V181.272ZM280.16 182.28C280.16 181.736 280.324 181.304 280.652 180.984C280.98 180.656 281.4 180.492 281.912 180.492C282.424 180.492 282.844 180.656 283.172 180.984C283.5 181.304 283.664 181.736 283.664 182.28C283.664 182.832 283.5 183.272 283.172 183.6C282.844 183.92 282.424 184.08 281.912 184.08C281.4 184.08 280.98 183.92 280.652 183.6C280.324 183.272 280.16 182.832 280.16 182.28ZM287.168 180.624L282.308 189H281.228L286.088 180.624H287.168ZM281.912 181.164C281.64 181.164 281.424 181.26 281.264 181.452C281.112 181.636 281.036 181.912 281.036 182.28C281.036 182.648 281.112 182.928 281.264 183.12C281.424 183.312 281.64 183.408 281.912 183.408C282.184 183.408 282.4 183.312 282.56 183.12C282.72 182.92 282.8 182.64 282.8 182.28C282.8 181.912 282.72 181.636 282.56 181.452C282.4 181.26 282.184 181.164 281.912 181.164ZM284.756 187.344C284.756 186.792 284.92 186.356 285.248 186.036C285.576 185.708 285.996 185.544 286.508 185.544C287.02 185.544 287.436 185.708 287.756 186.036C288.084 186.356 288.248 186.792 288.248 187.344C288.248 187.888 288.084 188.324 287.756 188.652C287.436 188.98 287.02 189.144 286.508 189.144C285.996 189.144 285.576 188.984 285.248 188.664C284.92 188.336 284.756 187.896 284.756 187.344ZM286.496 186.228C286.224 186.228 286.008 186.324 285.848 186.516C285.688 186.7 285.608 186.976 285.608 187.344C285.608 187.704 285.688 187.98 285.848 188.172C286.008 188.356 286.224 188.448 286.496 188.448C286.768 188.448 286.984 188.356 287.144 188.172C287.304 187.98 287.384 187.704 287.384 187.344C287.384 186.976 287.304 186.7 287.144 186.516C286.984 186.324 286.768 186.228 286.496 186.228Z" fill="#003BDD"/>
</g>
<g filter="url(#filter2_d_4647_1660)">
<rect x="7" y="199" width="325" height="120" rx="16" fill="white" shape-rendering="crispEdges"/>
<rect x="52.5" y="214.5" width="88" height="89" rx="44" fill="#003BDD" fill-opacity="0.1"/>
<g clip-path="url(#clip1_4647_1660)">
<path d="M90 261.5C91.1046 261.5 92 260.605 92 259.5C92 258.395 91.1046 257.5 90 257.5C88.8954 257.5 88 258.395 88 259.5C88 260.605 88.8954 261.5 90 261.5Z" fill="#003BDD"/>
<path d="M104 261.5C105.105 261.5 106 260.605 106 259.5C106 258.395 105.105 257.5 104 257.5C102.895 257.5 102 258.395 102 259.5C102 260.605 102.895 261.5 104 261.5Z" fill="#003BDD"/>
<path d="M97 261.5C98.1046 261.5 99 260.605 99 259.5C99 258.395 98.1046 257.5 97 257.5C95.8954 257.5 95 258.395 95 259.5C95 260.605 95.8954 261.5 97 261.5Z" fill="#003BDD"/>
<path d="M97 273.5C94.2311 273.5 91.5243 272.679 89.222 271.141C86.9197 269.602 85.1253 267.416 84.0657 264.858C83.0061 262.299 82.7288 259.484 83.269 256.769C83.8092 254.053 85.1426 251.558 87.1005 249.601C89.0584 247.643 91.553 246.309 94.2687 245.769C96.9845 245.229 99.7994 245.506 102.358 246.566C104.916 247.625 107.102 249.42 108.641 251.722C110.179 254.024 111 256.731 111 259.5C110.996 263.212 109.519 266.77 106.895 269.395C104.27 272.019 100.712 273.496 97 273.5ZM97 247.5C94.6266 247.5 92.3066 248.204 90.3332 249.522C88.3598 250.841 86.8217 252.715 85.9135 254.908C85.0052 257.101 84.7676 259.513 85.2306 261.841C85.6936 264.169 86.8365 266.307 88.5147 267.985C90.193 269.664 92.3312 270.806 94.6589 271.269C96.9867 271.732 99.3995 271.495 101.592 270.587C103.785 269.678 105.659 268.14 106.978 266.167C108.296 264.193 109 261.873 109 259.5C108.996 256.319 107.731 253.268 105.481 251.019C103.232 248.769 100.181 247.504 97 247.5Z" fill="#003BDD"/>
</g>
<path d="M163.016 227.084C163.016 227.78 162.776 228.36 162.296 228.824C161.824 229.28 161.1 229.508 160.124 229.508H158.516V233H157.424V224.636H160.124C161.068 224.636 161.784 224.864 162.272 225.32C162.768 225.776 163.016 226.364 163.016 227.084ZM160.124 228.608C160.732 228.608 161.18 228.476 161.468 228.212C161.756 227.948 161.9 227.572 161.9 227.084C161.9 226.052 161.308 225.536 160.124 225.536H158.516V228.608H160.124ZM170.373 229.46C170.373 229.668 170.361 229.888 170.337 230.12H165.081C165.121 230.768 165.341 231.276 165.741 231.644C166.149 232.004 166.641 232.184 167.217 232.184C167.689 232.184 168.081 232.076 168.393 231.86C168.713 231.636 168.937 231.34 169.065 230.972H170.241C170.065 231.604 169.713 232.12 169.185 232.52C168.657 232.912 168.001 233.108 167.217 233.108C166.593 233.108 166.033 232.968 165.537 232.688C165.049 232.408 164.665 232.012 164.385 231.5C164.105 230.98 163.965 230.38 163.965 229.7C163.965 229.02 164.101 228.424 164.373 227.912C164.645 227.4 165.025 227.008 165.513 226.736C166.009 226.456 166.577 226.316 167.217 226.316C167.841 226.316 168.393 226.452 168.873 226.724C169.353 226.996 169.721 227.372 169.977 227.852C170.241 228.324 170.373 228.86 170.373 229.46ZM169.245 229.232C169.245 228.816 169.153 228.46 168.969 228.164C168.785 227.86 168.533 227.632 168.213 227.48C167.901 227.32 167.553 227.24 167.169 227.24C166.617 227.24 166.145 227.416 165.753 227.768C165.369 228.12 165.149 228.608 165.093 229.232H169.245ZM175.019 226.304C175.819 226.304 176.467 226.548 176.963 227.036C177.459 227.516 177.707 228.212 177.707 229.124V233H176.627V229.28C176.627 228.624 176.463 228.124 176.135 227.78C175.807 227.428 175.359 227.252 174.791 227.252C174.215 227.252 173.755 227.432 173.411 227.792C173.075 228.152 172.907 228.676 172.907 229.364V233H171.815V226.424H172.907V227.36C173.123 227.024 173.415 226.764 173.783 226.58C174.159 226.396 174.571 226.304 175.019 226.304ZM179.082 229.688C179.082 229.016 179.218 228.428 179.49 227.924C179.762 227.412 180.134 227.016 180.606 226.736C181.086 226.456 181.622 226.316 182.214 226.316C182.726 226.316 183.202 226.436 183.642 226.676C184.082 226.908 184.418 227.216 184.65 227.6V224.12H185.754V233H184.65V231.764C184.434 232.156 184.114 232.48 183.69 232.736C183.266 232.984 182.77 233.108 182.202 233.108C181.618 233.108 181.086 232.964 180.606 232.676C180.134 232.388 179.762 231.984 179.49 231.464C179.218 230.944 179.082 230.352 179.082 229.688ZM184.65 229.7C184.65 229.204 184.55 228.772 184.35 228.404C184.15 228.036 183.878 227.756 183.534 227.564C183.198 227.364 182.826 227.264 182.418 227.264C182.01 227.264 181.638 227.36 181.302 227.552C180.966 227.744 180.698 228.024 180.498 228.392C180.298 228.76 180.198 229.192 180.198 229.688C180.198 230.192 180.298 230.632 180.498 231.008C180.698 231.376 180.966 231.66 181.302 231.86C181.638 232.052 182.01 232.148 182.418 232.148C182.826 232.148 183.198 232.052 183.534 231.86C183.878 231.66 184.15 231.376 184.35 231.008C184.55 230.632 184.65 230.196 184.65 229.7ZM188.164 225.356C187.956 225.356 187.78 225.284 187.636 225.14C187.492 224.996 187.42 224.82 187.42 224.612C187.42 224.404 187.492 224.228 187.636 224.084C187.78 223.94 187.956 223.868 188.164 223.868C188.364 223.868 188.532 223.94 188.668 224.084C188.812 224.228 188.884 224.404 188.884 224.612C188.884 224.82 188.812 224.996 188.668 225.14C188.532 225.284 188.364 225.356 188.164 225.356ZM188.692 226.424V233H187.6V226.424H188.692ZM193.757 226.304C194.557 226.304 195.205 226.548 195.701 227.036C196.197 227.516 196.445 228.212 196.445 229.124V233H195.365V229.28C195.365 228.624 195.201 228.124 194.873 227.78C194.545 227.428 194.097 227.252 193.529 227.252C192.953 227.252 192.493 227.432 192.149 227.792C191.813 228.152 191.645 228.676 191.645 229.364V233H190.553V226.424H191.645V227.36C191.861 227.024 192.153 226.764 192.521 226.58C192.897 226.396 193.309 226.304 193.757 226.304ZM200.941 226.316C201.509 226.316 202.005 226.44 202.429 226.688C202.861 226.936 203.181 227.248 203.389 227.624V226.424H204.493V233.144C204.493 233.744 204.365 234.276 204.109 234.74C203.853 235.212 203.485 235.58 203.005 235.844C202.533 236.108 201.981 236.24 201.349 236.24C200.485 236.24 199.765 236.036 199.189 235.628C198.613 235.22 198.273 234.664 198.169 233.96H199.249C199.369 234.36 199.617 234.68 199.993 234.92C200.369 235.168 200.821 235.292 201.349 235.292C201.949 235.292 202.437 235.104 202.813 234.728C203.197 234.352 203.389 233.824 203.389 233.144V231.764C203.173 232.148 202.853 232.468 202.429 232.724C202.005 232.98 201.509 233.108 200.941 233.108C200.357 233.108 199.825 232.964 199.345 232.676C198.873 232.388 198.501 231.984 198.229 231.464C197.957 230.944 197.821 230.352 197.821 229.688C197.821 229.016 197.957 228.428 198.229 227.924C198.501 227.412 198.873 227.016 199.345 226.736C199.825 226.456 200.357 226.316 200.941 226.316ZM203.389 229.7C203.389 229.204 203.289 228.772 203.089 228.404C202.889 228.036 202.617 227.756 202.273 227.564C201.937 227.364 201.565 227.264 201.157 227.264C200.749 227.264 200.377 227.36 200.041 227.552C199.705 227.744 199.437 228.024 199.237 228.392C199.037 228.76 198.937 229.192 198.937 229.688C198.937 230.192 199.037 230.632 199.237 231.008C199.437 231.376 199.705 231.66 200.041 231.86C200.377 232.052 200.749 232.148 201.157 232.148C201.565 232.148 201.937 232.052 202.273 231.86C202.617 231.66 202.889 231.376 203.089 231.008C203.289 230.632 203.389 230.196 203.389 229.7Z" fill="#6D6E6F"/>
<path d="M169.532 273.408H161.756V277.512C162.092 277.096 162.572 276.76 163.196 276.504C163.82 276.232 164.484 276.096 165.188 276.096C166.468 276.096 167.516 276.376 168.332 276.936C169.148 277.496 169.74 278.216 170.108 279.096C170.476 279.96 170.66 280.888 170.66 281.88C170.66 283.72 170.132 285.2 169.076 286.32C168.036 287.44 166.548 288 164.612 288C162.788 288 161.332 287.544 160.244 286.632C159.156 285.72 158.54 284.528 158.396 283.056H161.66C161.804 283.696 162.124 284.208 162.62 284.592C163.132 284.976 163.78 285.168 164.564 285.168C165.508 285.168 166.22 284.872 166.7 284.28C167.18 283.688 167.42 282.904 167.42 281.928C167.42 280.936 167.172 280.184 166.676 279.672C166.196 279.144 165.484 278.88 164.54 278.88C163.868 278.88 163.308 279.048 162.86 279.384C162.412 279.72 162.092 280.168 161.9 280.728H158.684V270.456H169.532V273.408ZM175.089 288.168C174.481 288.168 173.977 287.984 173.577 287.616C173.193 287.232 173.001 286.76 173.001 286.2C173.001 285.64 173.193 285.176 173.577 284.808C173.977 284.424 174.481 284.232 175.089 284.232C175.681 284.232 176.169 284.424 176.553 284.808C176.937 285.176 177.129 285.64 177.129 286.2C177.129 286.76 176.937 287.232 176.553 287.616C176.169 287.984 175.681 288.168 175.089 288.168ZM188.524 274.872C188.364 274.2 188.084 273.696 187.684 273.36C187.3 273.024 186.74 272.856 186.004 272.856C184.9 272.856 184.084 273.304 183.556 274.2C183.044 275.08 182.78 276.52 182.764 278.52C183.148 277.88 183.708 277.384 184.444 277.032C185.18 276.664 185.98 276.48 186.844 276.48C187.884 276.48 188.804 276.704 189.604 277.152C190.404 277.6 191.028 278.256 191.476 279.12C191.924 279.968 192.148 280.992 192.148 282.192C192.148 283.328 191.916 284.344 191.452 285.24C191.004 286.12 190.34 286.808 189.46 287.304C188.58 287.8 187.532 288.048 186.316 288.048C184.652 288.048 183.34 287.68 182.38 286.944C181.436 286.208 180.772 285.184 180.388 283.872C180.02 282.544 179.836 280.912 179.836 278.976C179.836 276.048 180.34 273.84 181.348 272.352C182.356 270.848 183.948 270.096 186.124 270.096C187.804 270.096 189.108 270.552 190.036 271.464C190.964 272.376 191.5 273.512 191.644 274.872H188.524ZM186.076 279.24C185.228 279.24 184.516 279.488 183.94 279.984C183.364 280.48 183.076 281.2 183.076 282.144C183.076 283.088 183.34 283.832 183.868 284.376C184.412 284.92 185.172 285.192 186.148 285.192C187.012 285.192 187.692 284.928 188.188 284.4C188.7 283.872 188.956 283.16 188.956 282.264C188.956 281.336 188.708 280.6 188.212 280.056C187.732 279.512 187.02 279.24 186.076 279.24ZM194.419 274.8C194.419 273.584 194.771 272.632 195.475 271.944C196.195 271.256 197.115 270.912 198.235 270.912C199.355 270.912 200.267 271.256 200.971 271.944C201.691 272.632 202.051 273.584 202.051 274.8C202.051 276.032 201.691 276.992 200.971 277.68C200.267 278.368 199.355 278.712 198.235 278.712C197.115 278.712 196.195 278.368 195.475 277.68C194.771 276.992 194.419 276.032 194.419 274.8ZM209.827 271.2L200.395 288H197.131L206.539 271.2H209.827ZM198.211 272.928C197.331 272.928 196.891 273.552 196.891 274.8C196.891 276.064 197.331 276.696 198.211 276.696C198.643 276.696 198.979 276.544 199.219 276.24C199.459 275.92 199.579 275.44 199.579 274.8C199.579 273.552 199.123 272.928 198.211 272.928ZM204.955 284.376C204.955 283.144 205.307 282.192 206.011 281.52C206.731 280.832 207.651 280.488 208.771 280.488C209.891 280.488 210.795 280.832 211.483 281.52C212.187 282.192 212.539 283.144 212.539 284.376C212.539 285.608 212.187 286.568 211.483 287.256C210.795 287.944 209.891 288.288 208.771 288.288C207.635 288.288 206.715 287.944 206.011 287.256C205.307 286.568 204.955 285.608 204.955 284.376ZM208.747 282.504C207.835 282.504 207.379 283.128 207.379 284.376C207.379 285.64 207.835 286.272 208.747 286.272C209.643 286.272 210.091 285.64 210.091 284.376C210.091 283.128 209.643 282.504 208.747 282.504Z" fill="#010101"/>
<path d="M247.999 274.267H241.462C241.413 274.267 241.365 274.286 241.33 274.322C241.295 274.357 241.275 274.404 241.275 274.454V275.875C241.275 275.925 241.295 275.973 241.33 276.008C241.365 276.043 241.413 276.063 241.462 276.063H245.115L239.689 281.418L234.472 277.698L233.977 277.349C233.942 277.327 233.9 277.318 233.859 277.323C233.817 277.328 233.779 277.346 233.749 277.375L226.864 284.429C226.846 284.446 226.832 284.467 226.823 284.489C226.813 284.512 226.809 284.536 226.809 284.56C226.809 284.585 226.813 284.609 226.823 284.632C226.832 284.654 226.846 284.674 226.864 284.692L227.876 285.682C227.893 285.699 227.914 285.712 227.937 285.721C227.959 285.73 227.983 285.735 228.007 285.734C228.032 285.734 228.056 285.73 228.079 285.72C228.102 285.71 228.122 285.696 228.139 285.678L234.06 279.599L239.265 283.308L239.749 283.653C239.785 283.678 239.828 283.691 239.872 283.687C239.916 283.684 239.957 283.665 239.989 283.634L246.397 277.3V280.99C246.397 281.04 246.417 281.088 246.452 281.123C246.488 281.158 246.535 281.178 246.585 281.178H247.999C248.048 281.178 248.096 281.158 248.131 281.123C248.166 281.088 248.186 281.04 248.186 280.99V274.454C248.186 274.404 248.166 274.357 248.131 274.322C248.096 274.286 248.048 274.267 247.999 274.267Z" fill="#003BDD"/>
<path d="M256.22 280.508C256.276 279.772 256.56 279.196 257.072 278.78C257.584 278.364 258.248 278.156 259.064 278.156C259.608 278.156 260.076 278.256 260.468 278.456C260.868 278.648 261.168 278.912 261.368 279.248C261.576 279.584 261.68 279.964 261.68 280.388C261.68 280.884 261.536 281.312 261.248 281.672C260.968 282.032 260.6 282.264 260.144 282.368V282.428C260.664 282.556 261.076 282.808 261.38 283.184C261.684 283.56 261.836 284.052 261.836 284.66C261.836 285.116 261.732 285.528 261.524 285.896C261.316 286.256 261.004 286.54 260.588 286.748C260.172 286.956 259.672 287.06 259.088 287.06C258.24 287.06 257.544 286.84 257 286.4C256.456 285.952 256.152 285.32 256.088 284.504H257.144C257.2 284.984 257.396 285.376 257.732 285.68C258.068 285.984 258.516 286.136 259.076 286.136C259.636 286.136 260.06 285.992 260.348 285.704C260.644 285.408 260.792 285.028 260.792 284.564C260.792 283.964 260.592 283.532 260.192 283.268C259.792 283.004 259.188 282.872 258.38 282.872H258.104V281.96H258.392C259.128 281.952 259.684 281.832 260.06 281.6C260.436 281.36 260.624 280.992 260.624 280.496C260.624 280.072 260.484 279.732 260.204 279.476C259.932 279.22 259.54 279.092 259.028 279.092C258.532 279.092 258.132 279.22 257.828 279.476C257.524 279.732 257.344 280.076 257.288 280.508H256.22ZM263.31 282.572C263.31 281.196 263.534 280.124 263.982 279.356C264.43 278.58 265.214 278.192 266.334 278.192C267.446 278.192 268.226 278.58 268.674 279.356C269.122 280.124 269.346 281.196 269.346 282.572C269.346 283.972 269.122 285.06 268.674 285.836C268.226 286.612 267.446 287 266.334 287C265.214 287 264.43 286.612 263.982 285.836C263.534 285.06 263.31 283.972 263.31 282.572ZM268.266 282.572C268.266 281.876 268.218 281.288 268.122 280.808C268.034 280.32 267.846 279.928 267.558 279.632C267.278 279.336 266.87 279.188 266.334 279.188C265.79 279.188 265.374 279.336 265.086 279.632C264.806 279.928 264.618 280.32 264.522 280.808C264.434 281.288 264.39 281.876 264.39 282.572C264.39 283.292 264.434 283.896 264.522 284.384C264.618 284.872 264.806 285.264 265.086 285.56C265.374 285.856 265.79 286.004 266.334 286.004C266.87 286.004 267.278 285.856 267.558 285.56C267.846 285.264 268.034 284.872 268.122 284.384C268.218 283.896 268.266 283.292 268.266 282.572ZM271.374 287.072C271.166 287.072 270.99 287 270.846 286.856C270.702 286.712 270.63 286.536 270.63 286.328C270.63 286.12 270.702 285.944 270.846 285.8C270.99 285.656 271.166 285.584 271.374 285.584C271.574 285.584 271.742 285.656 271.878 285.8C272.022 285.944 272.094 286.12 272.094 286.328C272.094 286.536 272.022 286.712 271.878 286.856C271.742 287 271.574 287.072 271.374 287.072ZM278.897 279.272H274.685V282.008C274.869 281.752 275.141 281.544 275.501 281.384C275.861 281.216 276.249 281.132 276.665 281.132C277.329 281.132 277.869 281.272 278.285 281.552C278.701 281.824 278.997 282.18 279.173 282.62C279.357 283.052 279.449 283.512 279.449 284C279.449 284.576 279.341 285.092 279.125 285.548C278.909 286.004 278.577 286.364 278.129 286.628C277.689 286.892 277.141 287.024 276.485 287.024C275.645 287.024 274.965 286.808 274.445 286.376C273.925 285.944 273.609 285.368 273.497 284.648H274.565C274.669 285.104 274.889 285.46 275.225 285.716C275.561 285.972 275.985 286.1 276.497 286.1C277.129 286.1 277.605 285.912 277.925 285.536C278.245 285.152 278.405 284.648 278.405 284.024C278.405 283.4 278.245 282.92 277.925 282.584C277.605 282.24 277.133 282.068 276.509 282.068C276.085 282.068 275.713 282.172 275.393 282.38C275.081 282.58 274.853 282.856 274.709 283.208H273.677V278.312H278.897V279.272ZM280.66 280.28C280.66 279.736 280.824 279.304 281.152 278.984C281.48 278.656 281.9 278.492 282.412 278.492C282.924 278.492 283.344 278.656 283.672 278.984C284 279.304 284.164 279.736 284.164 280.28C284.164 280.832 284 281.272 283.672 281.6C283.344 281.92 282.924 282.08 282.412 282.08C281.9 282.08 281.48 281.92 281.152 281.6C280.824 281.272 280.66 280.832 280.66 280.28ZM287.668 278.624L282.808 287H281.728L286.588 278.624H287.668ZM282.412 279.164C282.14 279.164 281.924 279.26 281.764 279.452C281.612 279.636 281.536 279.912 281.536 280.28C281.536 280.648 281.612 280.928 281.764 281.12C281.924 281.312 282.14 281.408 282.412 281.408C282.684 281.408 282.9 281.312 283.06 281.12C283.22 280.92 283.3 280.64 283.3 280.28C283.3 279.912 283.22 279.636 283.06 279.452C282.9 279.26 282.684 279.164 282.412 279.164ZM285.256 285.344C285.256 284.792 285.42 284.356 285.748 284.036C286.076 283.708 286.496 283.544 287.008 283.544C287.52 283.544 287.936 283.708 288.256 284.036C288.584 284.356 288.748 284.792 288.748 285.344C288.748 285.888 288.584 286.324 288.256 286.652C287.936 286.98 287.52 287.144 287.008 287.144C286.496 287.144 286.076 286.984 285.748 286.664C285.42 286.336 285.256 285.896 285.256 285.344ZM286.996 284.228C286.724 284.228 286.508 284.324 286.348 284.516C286.188 284.7 286.108 284.976 286.108 285.344C286.108 285.704 286.188 285.98 286.348 286.172C286.508 286.356 286.724 286.448 286.996 286.448C287.268 286.448 287.484 286.356 287.644 286.172C287.804 285.98 287.884 285.704 287.884 285.344C287.884 284.976 287.804 284.7 287.644 284.516C287.484 284.324 287.268 284.228 286.996 284.228Z" fill="#003BDD"/>
</g>
<defs>
<filter id="filter0_d_4647_1660" x="3" y="0" width="333" height="128" filterUnits="userSpaceOnUse" color-interpolation-filters="sRGB">
<feFlood flood-opacity="0" result="BackgroundImageFix"/>
<feColorMatrix in="SourceAlpha" type="matrix" values="0 0 0 0 0 0 0 0 0 0 0 0 0 0 0 0 0 0 127 0" result="hardAlpha"/>
<feOffset dy="1"/>
<feGaussianBlur stdDeviation="2"/>
<feComposite in2="hardAlpha" operator="out"/>
<feColorMatrix type="matrix" values="0 0 0 0 0 0 0 0 0 0.0269231 0 0 0 0 0.538462 0 0 0 0.54 0"/>
<feBlend mode="normal" in2="BackgroundImageFix" result="effect1_dropShadow_4647_1660"/>
<feBlend mode="normal" in="SourceGraphic" in2="effect1_dropShadow_4647_1660" result="shape"/>
</filter>
<filter id="filter1_d_4647_1660" x="3" y="98" width="333" height="128" filterUnits="userSpaceOnUse" color-interpolation-filters="sRGB">
<feFlood flood-opacity="0" result="BackgroundImageFix"/>
<feColorMatrix in="SourceAlpha" type="matrix" values="0 0 0 0 0 0 0 0 0 0 0 0 0 0 0 0 0 0 127 0" result="hardAlpha"/>
<feOffset dy="1"/>
<feGaussianBlur stdDeviation="2"/>
<feComposite in2="hardAlpha" operator="out"/>
<feColorMatrix type="matrix" values="0 0 0 0 0 0 0 0 0 0.0269231 0 0 0 0 0.538462 0 0 0 0.54 0"/>
<feBlend mode="normal" in2="BackgroundImageFix" result="effect1_dropShadow_4647_1660"/>
<feBlend mode="normal" in="SourceGraphic" in2="effect1_dropShadow_4647_1660" result="shape"/>
</filter>
<filter id="filter2_d_4647_1660" x="3" y="196" width="333" height="128" filterUnits="userSpaceOnUse" color-interpolation-filters="sRGB">
<feFlood flood-opacity="0" result="BackgroundImageFix"/>
<feColorMatrix in="SourceAlpha" type="matrix" values="0 0 0 0 0 0 0 0 0 0 0 0 0 0 0 0 0 0 127 0" result="hardAlpha"/>
<feOffset dy="1"/>
<feGaussianBlur stdDeviation="2"/>
<feComposite in2="hardAlpha" operator="out"/>
<feColorMatrix type="matrix" values="0 0 0 0 0 0 0 0 0 0.0269231 0 0 0 0 0.538462 0 0 0 0.54 0"/>
<feBlend mode="normal" in2="BackgroundImageFix" result="effect1_dropShadow_4647_1660"/>
<feBlend mode="normal" in="SourceGraphic" in2="effect1_dropShadow_4647_1660" result="shape"/>
</filter>
<clipPath id="clip0_4647_1660">
<rect width="32" height="32" fill="white" transform="translate(81.5 47.5)"/>
</clipPath>
<clipPath id="clip1_4647_1660">
<rect width="32" height="32" fill="white" transform="translate(81 243.5)"/>
</clipPath>
</defs>
</svg>
