<svg width="45" height="52" viewBox="0 0 45 52" fill="none" xmlns="http://www.w3.org/2000/svg">
<path d="M31.6184 15.8746C35.2674 18.4809 39.7355 20.0143 44.5621 20.0143V12.707C41.868 12.1334 39.483 10.7264 37.6899 8.76914C34.6205 6.85469 32.409 3.69649 31.7606 0L24.9943 0V37.0787C24.9789 41.4014 21.4691 44.9014 17.1408 44.9014C14.5904 44.9014 12.3244 43.6863 10.8895 41.8037C8.32695 40.5111 6.56953 37.8572 6.56953 34.7924C6.56953 30.4578 10.0852 26.9434 14.4227 26.9434C15.2537 26.9434 16.0547 27.0727 16.8061 27.3109V19.9238C7.49121 20.1162 0 27.7232 0 37.0789C0 41.7492 1.86543 45.983 4.89316 49.0766C7.62461 50.9096 10.9127 51.9789 14.4506 51.9789C23.932 51.9789 31.6186 44.2963 31.6186 34.8193L31.6184 15.8746Z" fill="white"/>
</svg>
