<svg width="50" height="50" viewBox="0 0 50 50" fill="none" xmlns="http://www.w3.org/2000/svg">
<path fill-rule="evenodd" clip-rule="evenodd" d="M10.4154 2.08301C8.20523 2.08301 6.08561 2.96098 4.52281 4.52378C2.96001 6.08659 2.08203 8.2062 2.08203 10.4163L2.08203 39.583C2.08203 41.7931 2.96001 43.9128 4.52281 45.4756C6.08561 47.0384 8.20523 47.9163 10.4154 47.9163H39.582C41.7922 47.9163 43.9118 47.0384 45.4746 45.4756C47.0374 43.9128 47.9154 41.7931 47.9154 39.583V10.4163C47.9154 8.2062 47.0374 6.08659 45.4746 4.52378C43.9118 2.96098 41.7922 2.08301 39.582 2.08301L10.4154 2.08301ZM9.71953 9.37468C9.49147 9.45943 9.28636 9.59627 9.12052 9.7743C8.95469 9.95232 8.83272 10.1666 8.76433 10.4001C8.69594 10.6336 8.68303 10.8798 8.72661 11.1192C8.77019 11.3586 8.86907 11.5844 9.01537 11.7788L20.7112 27.2997L8.38828 40.5184L8.29662 40.6247H12.5612L22.6237 29.8351L30.357 40.1018C30.5365 40.3394 30.78 40.5208 31.0591 40.6247H40.2716C40.4993 40.5395 40.704 40.4023 40.8694 40.2241C41.0348 40.0459 41.1563 39.8315 41.2243 39.5981C41.2922 39.3646 41.3048 39.1185 41.2609 38.8794C41.2171 38.6402 41.118 38.4146 40.9716 38.2205L29.2758 22.6997L41.7008 9.37468H37.43L27.3675 20.1663L19.63 9.89968C19.4508 9.66126 19.2072 9.47909 18.9279 9.37468H9.71953ZM32.3862 37.5997L13.3966 12.3997H17.6029L36.5904 37.5976L32.3862 37.5997Z" fill="white"/>
</svg>
